<svg aria-label="Video Watermark filled 96" role="img" width="96" height="96" viewBox="0 0 96 96" fill="none" xmlns="http://www.w3.org/2000/svg">
<defs>
<mask id="ea-knock-video-watermark-96" maskUnits="userSpaceOnUse" x="0" y="0" width="96" height="96">
<rect width="96" height="96" fill="#fff"/>
<path d="M12 21C12 16.0294 16.0294 12 21 12H66C75.9411 12 84 20.0589 84 30V75C84 79.9706 79.9706 84 75 84H30C20.0589 84 12 75.9411 12 66V21Z" fill="#000"/>
<path d="M14 21C14 17.134 17.134 14 21 14H66C74.8366 14 82 21.1634 82 30V75C82 78.866 78.866 82 75 82H30C21.1634 82 14 74.8366 14 66V21Z" fill="#fff"/>
<path d="M14 21C14 17.134 17.134 14 21 14H66C74.8366 14 82 21.1634 82 30V75C82 78.866 78.866 82 75 82H30C21.1634 82 14 74.8366 14 66V21Z" fill="#fff"/>
<path d="M38.7061 30.5843C35.7064 28.8975 32 31.0644 32 34.5048V61.4952C32 64.9355 35.7063 67.1024 38.7059 65.4158L62.7062 51.9211C65.7646 50.2014 65.7646 45.7997 62.7063 44.0799L38.7061 30.5843Z" fill="#000"/>
</mask>
</defs>
<g mask="url(#ea-knock-video-watermark-96)">
<path d="M12 21C12 16.0294 16.0294 12 21 12H66C75.9411 12 84 20.0589 84 30V75C84 79.9706 79.9706 84 75 84H30C20.0589 84 12 75.9411 12 66V21Z" fill="currentColor"/>
<path d="M14 21C14 17.134 17.134 14 21 14H66C74.8366 14 82 21.1634 82 30V75C82 78.866 78.866 82 75 82H30C21.1634 82 14 74.8366 14 66V21Z" fill="currentColor"/>
<path d="M14 21C14 17.134 17.134 14 21 14H66C74.8366 14 82 21.1634 82 30V75C82 78.866 78.866 82 75 82H30C21.1634 82 14 74.8366 14 66V21Z" fill="currentColor"/>
<path d="M38.7061 30.5843C35.7064 28.8975 32 31.0644 32 34.5048V61.4952C32 64.9355 35.7063 67.1024 38.7059 65.4158L62.7062 51.9211C65.7646 50.2014 65.7646 45.7997 62.7063 44.0799L38.7061 30.5843Z" fill="currentColor"/>
</g>
<path d="M12 21C12 16.0294 16.0294 12 21 12H66C75.9411 12 84 20.0589 84 30V75C84 79.9706 79.9706 84 75 84H30C20.0589 84 12 75.9411 12 66V21Z" fill="none" stroke="currentColor" stroke-width="3" stroke-linejoin="round"/>
<path d="M38.7061 30.5843C35.7064 28.8975 32 31.0644 32 34.5048V61.4952C32 64.9355 35.7063 67.1024 38.7059 65.4158L62.7062 51.9211C65.7646 50.2014 65.7646 45.7997 62.7063 44.0799L38.7061 30.5843Z" fill="none" stroke="currentColor" stroke-width="3" stroke-linejoin="round"/>
</svg>
