<svg aria-label="Copilot Page filled 24" role="img" width="24" height="24" viewBox="0 0 24 24" fill="none" xmlns="http://www.w3.org/2000/svg">
<path d="M4 4C4 2.89543 4.89543 2 6 2H16C18.2091 2 20 3.79086 20 6V20C20 21.1046 19.1046 22 18 22H8C5.79086 22 4 20.2091 4 18V4Z" fill="currentColor"/>
<path d="M5 4C5 3.44772 5.44772 3 6 3H16C17.6569 3 19 4.34315 19 6V20C19 20.5523 18.5523 21 18 21H8C6.34315 21 5 19.6569 5 18V4Z" fill="var(--ea-knockout, #fff)"/>
<path d="M5 4C5 3.44772 5.44772 3 6 3H16C17.6569 3 19 4.34315 19 6V20C19 20.5523 18.5523 21 18 21H8C6.34315 21 5 19.6569 5 18V4Z" fill="var(--ea-knockout, #fff)"/>
<path d="M14.8234 11H15.1176C15.6049 11 16 11.3951 16 11.8824V15.8234C16 16.4732 15.4732 17 14.8234 17H9.17657C8.52677 17 8 16.4732 8 15.8234V15.2351L13.2946 14.0585L14.8234 11Z" fill="currentColor"/>
<path d="M15 9.88242L15 9.87671C14.9969 9.39357 14.6056 9.00256 14.1223 9L13.2946 9V12.5875C13.2946 12.7485 13.1602 12.8993 12.9757 12.9164C12.3964 12.9701 11.4686 13.108 10.5375 13.4652C9.85266 13.7279 9.15142 14.1149 8.58829 14.6867C8.58829 14.6867 8 15.2348 8 15.8231C8 16.2058 8.18272 16.5458 8.46568 16.7607C8.60384 16.6603 8.78298 16.5287 9.01526 16.389C9.67777 16.0046 10.5574 15.4908 11.4511 15.3154C12.5202 15.1056 13.5075 15.0283 14.1323 15C14.6083 14.9784 15 14.5891 15 14.1013V9.88242Z" fill="currentColor"/>
<path d="M14 12.588C14 13.0768 13.6096 13.4597 13.1471 13.5026C12.597 13.5536 11.6104 13.6841 10.7482 14.0149C9.94616 14.3225 8.70442 15.1567 8.08244 16.257C8.02924 16.1229 8 15.9766 8 15.8235V12.588C8 10.7754 8.84657 9.49642 9.86825 8.62131C10.883 7.75218 12.1936 7.27432 12.9281 7.04054C13.4906 6.86149 14 7.30154 14 7.84979V12.588Z" fill="currentColor"/>
</svg>
