<svg aria-label="Access regular 28" role="img" width="28" height="28" viewBox="0 0 28 28" fill="none" xmlns="http://www.w3.org/2000/svg">
<path d="M14 2C18.9706 2 23 3.79086 23 6V22C23 24.2091 18.9706 26 14 26C9.80624 26 6.28219 24.7253 5.2832 23H4.25C3.00736 23 2 21.9926 2 20.75V15.25C2 14.0074 3.00736 13 4.25 13H5V6C5 3.79086 9.02944 2 14 2ZM4.08008 21H5.48633L5.8916 19.7988H8.08789L8.50098 21H9.91992L7.82422 15H6.22559L4.08008 21ZM21.5 13.21C19.8877 14.2881 17.131 15 14 15C13.3124 15 12.6433 14.9617 12 14.8965V18.8916C12.6344 18.9611 13.304 19 14 19C16.3256 19 18.3591 18.5783 19.7549 17.958C20.4547 17.647 20.9279 17.3148 21.2061 17.0225C21.4767 16.738 21.5 16.5642 21.5 16.5V13.21ZM7.06445 16.3936C7.08392 16.4549 7.10471 16.5234 7.12695 16.5986L7.76562 18.6943H6.2002L6.85156 16.5938C6.87654 16.5159 6.8995 16.4437 6.91895 16.377C6.9384 16.3101 6.95598 16.2415 6.97266 16.1719H7.00586C7.02532 16.2555 7.04499 16.3295 7.06445 16.3936ZM21.5 8.20996C19.8877 9.28809 17.131 10 14 10C10.869 10 8.11226 9.28809 6.5 8.20996V11C6.5 11.0642 6.52329 11.238 6.79395 11.5225C7.07213 11.8148 7.54535 12.147 8.24512 12.458C9.64088 13.0783 11.6744 13.5 14 13.5C16.3256 13.5 18.3591 13.0783 19.7549 12.458C20.4547 12.147 20.9279 11.8148 21.2061 11.5225C21.4767 11.238 21.5 11.0642 21.5 11V8.20996ZM14 3.5C11.6744 3.5 9.64088 3.92166 8.24512 4.54199C7.54535 4.853 7.07213 5.18523 6.79395 5.47754C6.52329 5.76201 6.5 5.9358 6.5 6C6.5 6.0642 6.52329 6.23799 6.79395 6.52246C7.07213 6.81477 7.54535 7.147 8.24512 7.45801C9.64088 8.07834 11.6744 8.5 14 8.5C16.3256 8.5 18.3591 8.07834 19.7549 7.45801C20.4547 7.147 20.9279 6.81477 21.2061 6.52246C21.4767 6.23799 21.5 6.0642 21.5 6C21.5 5.9358 21.4767 5.76201 21.2061 5.47754C20.9279 5.18523 20.4547 4.853 19.7549 4.54199C18.3591 3.92166 16.3256 3.5 14 3.5ZM7.3877 23C7.62327 23.1529 7.90778 23.3081 8.24512 23.458C9.64088 24.0783 11.6744 24.5 14 24.5C16.3256 24.5 18.3591 24.0783 19.7549 23.458C20.4547 23.147 20.9279 22.8148 21.2061 22.5225C21.4767 22.238 21.5 22.0642 21.5 22V18.71C19.8877 19.7881 17.131 20.5 14 20.5C13.3125 20.5 12.6433 20.4634 12 20.3984V20.75C12 21.9926 10.9926 23 9.75 23H7.3877Z" fill="currentColor" fill-opacity="0.858824"/>
</svg>
