<svg aria-label="Power BI semantic model standard 16" role="img" width="16" height="16" viewBox="0 0 16 16" fill="none" xmlns="http://www.w3.org/2000/svg">
<path d="M1 4C1 2.89543 1.89543 2 3 2H11.5C13.433 2 15 3.567 15 5.5V12C15 13.1046 14.1046 14 13 14H4.5C2.567 14 1 12.433 1 10.5V4Z" fill="url(#file-power-bi-semantic-model-standard-16-paint0_linear_567113_1013)"/>
<path d="M2 4C2 3.44772 2.44772 3 3 3H11.5C12.8807 3 14 4.11929 14 5.5V12C14 12.5523 13.5523 13 13 13H4.5C3.11929 13 2 11.8807 2 10.5V4Z" fill="url(#file-power-bi-semantic-model-standard-16-paint1_linear_567113_1013)"/>
<path d="M2 4C2 3.44772 2.44772 3 3 3H11.5C12.8807 3 14 4.11929 14 5.5V12C14 12.5523 13.5523 13 13 13H4.5C3.11929 13 2 11.8807 2 10.5V4Z" fill="url(#file-power-bi-semantic-model-standard-16-paint2_radial_567113_1013)"/>
<path d="M8 9C8.55228 9 9 9.44772 9 10C9 10.5523 8.55228 11 8 11V9ZM4 5C4.55228 5 5 5.44772 5 6C5 6.55228 4.55228 7 4 7C3.44772 7 3 6.55228 3 6C3 5.44772 3.44772 5 4 5ZM8 5C8.55228 5 9 5.44772 9 6C9 6.55228 8.55228 7 8 7C7.44772 7 7 6.55228 7 6C7 5.44772 7.44772 5 8 5ZM12 5C12.5523 5 13 5.44772 13 6C13 6.55228 12.5523 7 12 7C11.4477 7 11 6.55228 11 6C11 5.44772 11.4477 5 12 5Z" fill="url(#file-power-bi-semantic-model-standard-16-paint3_linear_567113_1013)"/>
<path d="M7 8.67V15.33C7 15.7 6.70003 16 6.33 16H4L4 8.67C4 8.29997 4.29997 8 4.67 8H6.33C6.70003 8 7 8.29997 7 8.67Z" fill="url(#file-power-bi-semantic-model-standard-16-paint4_linear_567113_1013)"/>
<path opacity="0.25" fill-rule="evenodd" clip-rule="evenodd" d="M5.5 10.5568C5.5 10.2493 5.21509 10 4.86363 10L2.54544 10.2386V15.7613L5.22727 16H5.5V10.5568Z" fill="black" fill-opacity="0.5"/>
<path d="M5 10.6667V16H2V10.67C2 10.3 2.29997 10 2.67 10H4.33333C4.70152 10 5 10.2985 5 10.6667Z" fill="url(#file-power-bi-semantic-model-standard-16-paint5_linear_567113_1013)"/>
<path d="M0 12.67V15.33C0 15.7 0.299969 16 0.67 16H3V12.67C3 12.3 2.70003 12 2.33 12H0.67C0.299969 12 0 12.3 0 12.67Z" fill="url(#file-power-bi-semantic-model-standard-16-paint6_linear_567113_1013)"/>
<defs>
<linearGradient id="file-power-bi-semantic-model-standard-16-paint0_linear_567113_1013" x1="5.52083" y1="2" x2="6.91218" y2="14.1743" gradientUnits="userSpaceOnUse">
<stop stop-color="#BBBBBB"/>
<stop offset="1" stop-color="#888888"/>
</linearGradient>
<linearGradient id="file-power-bi-semantic-model-standard-16-paint1_linear_567113_1013" x1="5.33333" y1="3" x2="6.39244" y2="13.1675" gradientUnits="userSpaceOnUse">
<stop stop-color="white"/>
<stop offset="1" stop-color="#EBEBEB"/>
</linearGradient>
<radialGradient id="file-power-bi-semantic-model-standard-16-paint2_radial_567113_1013" cx="0" cy="0" r="1" gradientTransform="matrix(6.33333 7.91667 -9.5 2.96875 5.83333 5.60417)" gradientUnits="userSpaceOnUse">
<stop offset="0.177083" stop-color="white"/>
<stop offset="1" stop-color="#EFEFEF"/>
</radialGradient>
<linearGradient id="file-power-bi-semantic-model-standard-16-paint3_linear_567113_1013" x1="3" y1="5" x2="8.29412" y2="13.8235" gradientUnits="userSpaceOnUse">
<stop stop-color="#7751B8"/>
<stop offset="1" stop-color="#5A409C"/>
</linearGradient>
<linearGradient id="file-power-bi-semantic-model-standard-16-paint4_linear_567113_1013" x1="3.5" y1="8" x2="6.38676" y2="15.3755" gradientUnits="userSpaceOnUse">
<stop stop-color="#E6AD10"/>
<stop offset="1" stop-color="#C87E0E"/>
</linearGradient>
<linearGradient id="file-power-bi-semantic-model-standard-16-paint5_linear_567113_1013" x1="1.99976" y1="10" x2="4.74976" y2="16" gradientUnits="userSpaceOnUse">
<stop stop-color="#F6D751"/>
<stop offset="1" stop-color="#E6AD10"/>
</linearGradient>
<linearGradient id="file-power-bi-semantic-model-standard-16-paint6_linear_567113_1013" x1="-0.000251124" y1="12" x2="1.46824" y2="16.0272" gradientUnits="userSpaceOnUse">
<stop stop-color="#F9E589"/>
<stop offset="1" stop-color="#F6D751"/>
</linearGradient>
</defs>
</svg>
